<svg id="Layer_1" data-name="Layer 1" xmlns="http://www.w3.org/2000/svg" viewBox="0 0 64 56"><defs><style>.cls-1{fill:none;stroke:#232829;stroke-miterlimit:10;stroke-width:2px;}</style></defs><title>Artboard 5</title><path class="cls-1" d="M63,37V7A6,6,0,0,0,51,7V37a6,6,0,1,1,6,6H1V7H48"/><line class="cls-1" x1="9" y1="11" x2="9" y2="39"/><line class="cls-1" x1="14" y1="11" x2="14" y2="39"/><line class="cls-1" x1="24" y1="11" x2="24" y2="39"/><line class="cls-1" x1="19" y1="11" x2="19" y2="39"/><line class="cls-1" x1="34" y1="11" x2="34" y2="39"/><line class="cls-1" x1="29" y1="11" x2="29" y2="39"/><line class="cls-1" x1="39" y1="11" x2="39" y2="39"/><line class="cls-1" x1="44" y1="11" x2="44" y2="39"/><line class="cls-1" x1="5" y1="20" x2="48" y2="20"/><line class="cls-1" x1="5" y1="15" x2="48" y2="15"/><line class="cls-1" x1="5" y1="25" x2="48" y2="25"/><line class="cls-1" x1="5" y1="30" x2="48" y2="30"/><line class="cls-1" x1="5" y1="35" x2="48" y2="35"/><rect class="cls-1" x="1" y="47" width="62" height="8"/><line class="cls-1" x1="5" y1="55" x2="5" y2="52"/><line class="cls-1" x1="9" y1="55" x2="9" y2="52"/><line class="cls-1" x1="13" y1="55" x2="13" y2="52"/><line class="cls-1" x1="17" y1="55" x2="17" y2="52"/><line class="cls-1" x1="21" y1="55" x2="21" y2="52"/><line class="cls-1" x1="25" y1="55" x2="25" y2="52"/><line class="cls-1" x1="29" y1="55" x2="29" y2="52"/><line class="cls-1" x1="33" y1="55" x2="33" y2="52"/><line class="cls-1" x1="37" y1="55" x2="37" y2="52"/><line class="cls-1" x1="41" y1="55" x2="41" y2="52"/><line class="cls-1" x1="45" y1="55" x2="45" y2="52"/><line class="cls-1" x1="49" y1="55" x2="49" y2="52"/><line class="cls-1" x1="53" y1="55" x2="53" y2="52"/><line class="cls-1" x1="60" y1="51" x2="58" y2="51"/></svg>