<svg id="Layer_1" data-name="Layer 1" xmlns="http://www.w3.org/2000/svg" viewBox="0 0 64 64"><defs><style>.cls-1{fill:none;stroke:#232829;stroke-linejoin:round;stroke-width:2px;}</style></defs><title>Artboard 4</title><rect class="cls-1" x="-3.63" y="42.17" width="45.25" height="5.66" transform="translate(-26.25 26.62) rotate(-45)"/><polyline class="cls-1" points="39 29 46 22 42 18 35 25"/><polygon class="cls-1" points="46 43 48 49 54 49 49 53 51 59 46 55 41 59 42.92 52.8 38 49 44 49 46 43"/><polygon class="cls-1" points="23 1 25 7 31 7 26 11 28 17 23 13 18 17 19.92 10.8 15 7 21 7 23 1"/><path class="cls-1" d="M35,57a27.9,27.9,0,0,1-17.7-6.3"/><path class="cls-1" d="M35,1A28,28,0,0,1,58,45"/><path class="cls-1" d="M13.3,46.7A28,28,0,0,1,12,13"/><circle class="cls-1" cx="50" cy="29" r="1"/><circle class="cls-1" cx="39" cy="8" r="1"/><circle class="cls-1" cx="23" cy="22" r="1"/><circle class="cls-1" cx="37" cy="41" r="1"/><circle class="cls-1" cx="54" cy="37" r="1"/><circle class="cls-1" cx="50" cy="14" r="1"/><path class="cls-1" d="M17.58,42.43A21.88,21.88,0,0,1,13,29"/><path class="cls-1" d="M54.06,18A21.88,21.88,0,0,1,57,29"/><line class="cls-1" x1="33" y1="15" x2="35" y2="15"/><line class="cls-1" x1="22" y1="28" x2="24" y2="28"/><line class="cls-1" x1="45" y1="38" x2="47" y2="38"/><line class="cls-1" x1="12" y1="26" x2="14" y2="26"/><line class="cls-1" x1="31" y1="49" x2="33" y2="49"/></svg>