<svg id="Layer_1" data-name="Layer 1" xmlns="http://www.w3.org/2000/svg" viewBox="0 0 64 56"><defs><style>.cls-1{fill:none;stroke:#232829;stroke-linejoin:round;stroke-width:2px;}</style></defs><title>Artboard 7</title><polyline class="cls-1" points="13 31 1 31 1 25 13 25"/><line class="cls-1" x1="5" y1="25" x2="5" y2="31"/><path class="cls-1" d="M51.75,25a19.8,19.8,0,0,0-3.66-8.88A3,3,0,0,1,46,17a3,3,0,0,1-3-3,3,3,0,0,1,.85-2.09A19.8,19.8,0,0,0,35,8.25a3,3,0,0,1-5.94,0,19.8,19.8,0,0,0-8.88,3.66A3,3,0,0,1,21,14a3,3,0,0,1-3,3,3,3,0,0,1-2.09-.85A19.8,19.8,0,0,0,12.25,25a3,3,0,0,1,0,5.94,19.8,19.8,0,0,0,3.66,8.88A3,3,0,0,1,18,39a3,3,0,0,1,3,3,3,3,0,0,1-.85,2.09A19.8,19.8,0,0,0,29,47.75a3,3,0,0,1,5.94,0,19.8,19.8,0,0,0,8.88-3.66A3,3,0,0,1,43,42a3,3,0,0,1,3-3,3,3,0,0,1,2.09.85A19.8,19.8,0,0,0,51.75,31"/><path class="cls-1" d="M40.49,31a9,9,0,1,1,0-6"/><polyline class="cls-1" points="24 25 59 25 63 28 59 31 24 31"/><line class="cls-1" x1="47" y1="12" x2="49" y2="12"/><line class="cls-1" x1="47" y1="44" x2="49" y2="44"/><line class="cls-1" x1="31" y1="6" x2="33" y2="6"/><line class="cls-1" x1="31" y1="50" x2="33" y2="50"/><line class="cls-1" x1="15" y1="12" x2="17" y2="12"/><line class="cls-1" x1="15" y1="44" x2="17" y2="44"/><line class="cls-1" x1="54" y1="31" x2="54" y2="25"/><path class="cls-1" d="M5.92,21a27,27,0,0,1,52.16,0"/><path class="cls-1" d="M58.08,35A27,27,0,0,1,5.92,35"/></svg>