<?xml version="1.0" standalone="no"?>
<!DOCTYPE svg PUBLIC "-//W3C//DTD SVG 20010904//EN"
 "http://www.w3.org/TR/2001/REC-SVG-20010904/DTD/svg10.dtd">
<svg version="1.0" xmlns="http://www.w3.org/2000/svg"
 width="458.000000pt" height="458.000000pt" viewBox="0 0 458.000000 458.000000"
 preserveAspectRatio="xMidYMid meet">
<metadata>
Created by potrace 1.11, written by Peter Selinger 2001-2013
</metadata>
<g transform="translate(0.000000,458.000000) scale(0.100000,-0.100000)"
fill="#000000" stroke="none">
<path d="M2130 3476 c0 -9 10 -30 21 -46 12 -16 25 -46 29 -67 l8 -38 1 38 c1
43 -18 95 -42 116 -15 12 -17 11 -17 -3z"/>
<path d="M1647 3388 c-24 -28 -29 -30 -52 -20 -22 10 -25 9 -25 -8 0 -10 5
-22 10 -25 15 -9 12 -18 -16 -48 -30 -33 -27 -46 4 -17 33 31 52 26 33 -8 -14
-27 -20 -81 -10 -88 6 -3 23 0 40 6 38 16 53 64 31 99 -13 21 -13 27 1 50 19
33 31 91 19 91 -5 0 -21 -14 -35 -32z m1 -48 c-7 -10 -14 -18 -15 -16 -6 6 9
36 18 36 5 0 4 -9 -3 -20z m0 -93 c3 -16 -35 -44 -45 -33 -4 3 -1 18 6 32 12
27 34 28 39 1z"/>
<path d="M3080 3400 c0 -6 9 -23 20 -38 28 -39 30 -71 9 -132 -26 -74 -25
-100 4 -100 13 0 28 5 35 12 17 17 15 63 -3 78 -12 10 -14 22 -9 44 10 43 6
83 -11 117 -15 28 -45 40 -45 19z m59 -214 c9 -11 7 -15 -9 -19 -15 -4 -20 0
-20 14 0 22 13 25 29 5z"/>
<path d="M3558 3308 c-29 -45 -43 -97 -30 -110 14 -14 43 -1 51 23 4 12 2 12
-12 0 -28 -23 -33 15 -9 65 23 48 23 58 0 22z"/>
<path d="M2227 3313 c-4 -3 -10 -28 -13 -55 l-7 -48 -37 40 c-40 44 -51 48
-70 25 -17 -21 -6 -41 32 -60 18 -9 48 -33 66 -53 30 -35 32 -35 29 -12 -2 14
-1 48 2 75 5 40 10 49 24 47 22 -4 23 33 1 42 -19 7 -19 7 -27 -1z"/>
<path d="M3935 3251 c-150 -55 -181 -70 -183 -88 -3 -19 12 -15 175 49 176 69
203 82 203 99 0 13 0 13 -195 -60z"/>
<path d="M1781 3235 c-23 -35 -41 -68 -41 -72 0 -5 42 -30 92 -57 l92 -48 23
28 c37 47 55 91 44 111 -5 10 -45 37 -89 61 l-80 42 -41 -65z"/>
<path d="M4241 3251 c-26 -53 -25 -83 2 -87 17 -2 44 32 33 44 -3 3 -6 0 -6
-6 0 -7 -7 -12 -15 -12 -20 0 -19 33 1 71 8 17 14 33 11 35 -2 2 -14 -18 -26
-45z"/>
<path d="M2834 3198 c-3 -4 2 -10 10 -13 9 -3 23 -7 32 -10 10 -3 14 0 12 12
-3 17 -45 26 -54 11z"/>
<path d="M3606 3138 c-8 -24 -17 -52 -19 -63 -3 -16 -9 -11 -32 27 -37 60 -71
71 -88 26 -6 -18 23 -50 43 -46 8 2 23 -22 38 -59 14 -34 28 -60 33 -58 4 3
13 31 19 62 13 61 29 103 40 103 3 0 11 -5 18 -12 9 -9 13 -8 18 5 11 29 0 52
-28 55 -23 3 -28 -2 -42 -40z"/>
<path d="M1283 3144 c-3 -9 -2 -23 3 -30 5 -7 22 -31 38 -54 22 -30 29 -52 30
-90 1 -43 3 -48 14 -33 6 9 12 35 12 57 0 79 -78 199 -97 150z"/>
<path d="M2846 3134 c-11 -30 -6 -44 19 -50 34 -8 31 -20 -7 -40 -87 -45 -125
-34 -115 32 5 27 4 33 -3 19 -13 -30 -12 -93 3 -102 23 -14 42 -12 82 8 79 41
101 80 75 130 -13 23 -46 25 -54 3z"/>
<path d="M3211 3100 l-34 -50 -84 45 c-46 25 -88 43 -92 40 -5 -2 -27 -33 -48
-68 l-40 -64 96 -51 96 -51 33 49 34 49 81 -42 c45 -23 85 -43 89 -45 10 -5
78 99 78 119 0 9 -8 23 -17 31 -16 14 -146 88 -155 88 -1 0 -18 -22 -37 -50z"/>
<path d="M3866 3083 c-25 -36 -43 -70 -40 -74 5 -9 171 -99 181 -99 14 0 73
95 73 116 0 26 -18 42 -102 87 l-68 37 -44 -67z"/>
<path d="M2271 3059 c-11 -28 -21 -60 -21 -70 0 -27 37 -24 51 4 11 20 11 21
-4 8 -26 -21 -33 11 -13 60 9 23 15 43 13 45 -2 3 -14 -19 -26 -47z"/>
<path d="M4140 3095 c-10 -13 -9 -15 11 -16 60 -2 80 -13 58 -32 -63 -54 -83
-109 -47 -128 33 -18 113 -5 159 25 52 35 46 42 -14 16 -44 -20 -109 -22 -137
-5 -13 8 6 45 32 64 11 7 24 25 29 39 8 21 7 29 -7 39 -24 18 -69 16 -84 -2z"/>
<path d="M1974 3040 l-36 -50 -72 38 c-109 58 -99 59 -147 -15 -50 -76 -55
-67 71 -132 l78 -41 33 49 34 49 88 -45 c49 -24 90 -43 92 -41 1 2 17 25 34
52 45 73 42 85 -31 128 -115 66 -103 65 -144 8z"/>
<path d="M2473 3059 c-7 -7 -13 -20 -13 -29 0 -12 9 -15 40 -12 48 5 47 -13
-1 -42 -40 -24 -30 -32 14 -11 37 17 67 69 51 85 -17 16 -78 22 -91 9z"/>
<path d="M1110 2918 c1 -13 11 -48 24 -78 20 -46 25 -51 28 -30 3 27 3 27 138
18 72 -5 131 6 207 38 34 14 67 24 74 22 6 -2 -6 -26 -30 -55 -22 -29 -37 -54
-33 -57 15 -9 92 98 92 127 0 15 -4 28 -10 28 -5 1 -16 2 -22 3 -7 2 -29 -4
-48 -12 -67 -28 -155 -49 -216 -51 -52 -2 -69 3 -128 33 -38 20 -70 36 -72 36
-2 0 -4 -10 -4 -22z"/>
<path d="M3105 2869 c-80 -16 -204 -73 -269 -124 -19 -14 -19 -15 -1 -35 25
-28 8 -25 -63 11 -177 88 -388 65 -571 -63 l-34 -24 -64 43 c-175 117 -391
116 -587 -2 l-58 -35 -57 35 c-249 153 -525 91 -775 -176 -147 -157 -192 -202
-231 -229 -106 -73 -234 -114 -337 -108 -32 2 -58 2 -58 1 0 -2 21 -14 47 -28
l48 -26 -40 5 c-37 4 -35 2 37 -35 243 -123 442 -129 596 -15 l53 38 77 -35
c114 -52 177 -68 277 -73 145 -6 235 27 337 124 24 23 41 32 49 26 10 -6 7
-10 -11 -14 -22 -5 -16 -10 45 -39 220 -103 391 -118 536 -45 26 13 77 53 115
89 37 36 69 65 71 65 2 0 20 -9 41 -21 l37 -21 -35 6 c-33 5 -34 5 -15 -10 39
-32 204 -105 281 -125 60 -15 98 -19 156 -15 126 9 192 42 320 165 229 217
411 335 562 367 26 5 116 7 121 2 7 -7 -161 -192 -212 -233 -111 -86 -261
-140 -375 -133 -32 2 -58 1 -58 -3 0 -3 19 -15 43 -27 42 -22 42 -22 10 -19
-18 2 -33 2 -33 0 0 -2 35 -20 78 -41 124 -61 215 -86 318 -89 159 -4 237 33
383 182 216 221 372 335 521 384 46 15 139 20 168 10 12 -5 22 -6 22 -3 0 3
-10 15 -22 26 -18 15 -19 18 -5 14 46 -15 -16 42 -98 88 -147 84 -308 93 -465
27 -65 -27 -165 -90 -207 -130 l-22 -21 -53 56 c-99 104 -220 182 -338 219
-62 19 -195 27 -255 14z m221 -122 c3 -2 -25 -7 -61 -10 -36 -4 -92 -17 -124
-30 -48 -19 -61 -21 -76 -11 -15 11 -15 13 7 25 50 27 105 37 177 34 40 -2 75
-6 77 -8z m-406 -131 c0 3 6 1 14 -5 11 -9 -11 -36 -115 -138 -71 -70 -148
-140 -171 -156 -101 -69 -220 -107 -337 -107 l-74 0 49 48 c234 227 429 336
584 326 l55 -4 -22 19 c-28 24 -30 35 -3 21 11 -6 20 -8 20 -4z m-878 -101
c-31 -34 -79 -86 -107 -116 -95 -106 -205 -173 -331 -204 -109 -26 -119 -19
-59 40 135 133 260 229 375 288 37 18 146 53 167 54 7 0 -13 -28 -45 -62z
m-754 -37 c-135 -153 -186 -196 -295 -252 -48 -24 -181 -62 -189 -54 -4 5 115
120 191 184 122 104 278 192 358 203 5 0 -24 -36 -65 -81z"/>
<path d="M2749 1893 c0 -4 -2 -16 -4 -25 -2 -12 3 -18 17 -18 14 0 19 6 16 22
-3 20 -27 39 -29 21z"/>
<path d="M3050 1860 c0 -13 7 -20 20 -20 13 0 20 7 20 20 0 13 -7 20 -20 20
-13 0 -20 -7 -20 -20z"/>
<path d="M3110 1860 c0 -13 7 -20 20 -20 13 0 20 7 20 20 0 13 -7 20 -20 20
-13 0 -20 -7 -20 -20z"/>
<path d="M907 1849 c-28 -16 -46 -66 -37 -105 7 -29 4 -35 -17 -49 -47 -31
-61 -103 -32 -157 20 -38 132 -63 151 -35 12 19 -2 27 -47 27 -66 0 -103 53
-75 105 17 31 50 41 128 40 53 -1 62 1 62 16 0 15 -11 19 -62 21 -59 3 -62 4
-70 33 -9 34 7 84 28 86 8 1 20 2 27 4 6 1 22 -10 34 -24 18 -21 25 -23 35
-13 11 11 8 18 -15 38 -30 26 -78 31 -110 13z"/>
<path d="M1110 1715 c0 -122 2 -145 15 -145 17 0 17 0 17 160 0 140 1 130 -17
130 -13 0 -15 -23 -15 -145z"/>
<path d="M2036 1851 c-3 -5 -5 -57 -5 -116 0 -83 -3 -112 -15 -123 -27 -27
-41 -6 -66 97 -23 98 -39 129 -59 117 -6 -4 -2 -32 10 -74 11 -37 21 -77 23
-90 3 -12 8 -31 11 -42 6 -17 2 -20 -29 -20 -25 0 -36 -4 -36 -15 0 -24 155
-24 180 1 22 21 27 274 6 274 -8 0 -17 -4 -20 -9z"/>
<path d="M2130 1715 c0 -136 1 -145 19 -145 18 0 19 9 19 145 0 135 -2 145
-19 145 -18 0 -19 -10 -19 -145z"/>
<path d="M2717 1842 c-8 -17 -1 -37 16 -40 11 -2 17 3 17 16 0 19 -26 38 -33
24z"/>
<path d="M2785 1842 c-18 -13 -14 -42 6 -42 14 0 19 7 19 25 0 25 -7 30 -25
17z"/>
<path d="M3764 1844 c-16 -7 -5 -44 12 -44 8 0 14 10 14 25 0 25 -4 28 -26 19z"/>
<path d="M3078 1802 c-16 -2 -39 -17 -54 -35 -21 -25 -25 -38 -21 -70 3 -21
15 -49 26 -61 12 -12 21 -25 21 -29 0 -4 -34 -7 -75 -7 l-75 0 0 85 c0 69 -3
85 -15 85 -15 0 -16 -5 -17 -107 -1 -50 -13 -63 -57 -63 l-36 0 3 85 c3 78 2
85 -16 85 -17 0 -19 -7 -17 -64 2 -90 -6 -106 -52 -106 l-39 0 4 85 c3 79 2
85 -17 85 -18 0 -20 -7 -19 -78 1 -118 -35 -175 -102 -164 -61 10 -82 50 -84
162 -1 70 -3 80 -19 80 -17 0 -18 -8 -16 -82 2 -46 7 -95 11 -109 15 -45 62
-81 112 -86 43 -5 48 -3 86 34 l40 41 204 0 c132 0 211 4 225 11 15 9 27 9 41
1 13 -7 131 -11 325 -12 365 -2 342 -10 347 120 3 77 2 82 -17 82 -18 0 -20
-6 -18 -67 2 -111 27 -103 -312 -103 -162 0 -295 2 -295 5 0 2 11 20 24 40 30
43 28 96 -4 130 -23 25 -49 32 -92 27z m82 -87 c0 -29 -39 -84 -61 -85 -17 0
-59 56 -59 79 0 36 12 50 46 60 23 7 34 4 52 -12 12 -11 22 -30 22 -42z"/>
<path d="M1240 1760 c0 -12 10 -20 31 -24 46 -9 74 -44 80 -101 l4 -30 -82 -3
c-65 -2 -83 -6 -83 -17 0 -18 -26 -16 325 -17 334 0 315 -8 315 127 0 74 -2
83 -17 79 -15 -4 -18 -18 -20 -81 -1 -50 -6 -79 -15 -84 -7 -5 -97 -9 -199 -9
l-186 0 -7 42 c-8 48 -38 103 -64 113 -9 4 -32 11 -49 15 -28 7 -33 5 -33 -10z"/>
<path d="M1865 1536 c-20 -63 -21 -60 25 -63 29 -2 40 2 40 12 0 9 -8 14 -22
12 -15 -1 -23 4 -26 17 -3 16 0 18 23 12 20 -5 26 -3 23 6 -7 20 -57 23 -63 4z"/>
<path d="M1797 1533 c-13 -13 -7 -31 13 -36 16 -4 20 0 20 19 0 23 -18 32 -33
17z"/>
<path d="M868 1383 c-68 -27 -105 -156 -59 -202 36 -36 131 -39 131 -6 0 11
-6 12 -22 6 -45 -16 -88 16 -88 67 0 76 56 133 116 118 21 -6 25 -4 22 11 -4
22 -52 25 -100 6z"/>
<path d="M1753 1392 c-37 -2 -53 -7 -53 -17 0 -9 11 -13 33 -12 23 2 31 -2 30
-13 -2 -8 -9 -51 -18 -95 -14 -76 -10 -105 13 -91 6 3 15 37 22 75 6 38 13 78
15 88 2 10 4 23 4 30 1 6 10 10 21 8 24 -5 50 3 50 15 0 10 -53 16 -117 12z"/>
<path d="M3186 1390 c-58 -18 -96 -76 -96 -149 0 -53 25 -81 78 -88 32 -4 42
-10 42 -24 0 -30 17 -31 25 -1 3 15 19 47 35 72 32 52 44 98 35 139 -9 41 -66
66 -119 51z m60 -28 c34 -22 27 -104 -12 -152 -27 -32 -70 -40 -92 -18 -28 28
-4 144 35 167 21 12 53 14 69 3z"/>
<path d="M3432 1384 c-63 -26 -64 -84 -2 -120 38 -23 45 -42 23 -66 -12 -14
-26 -18 -50 -15 -36 5 -54 -9 -32 -24 20 -14 78 -3 101 18 46 41 41 77 -17
113 -20 12 -35 30 -35 40 0 24 33 42 67 38 15 -2 28 3 30 10 3 6 -1 12 -9 13
-7 0 -20 2 -29 4 -8 1 -30 -3 -47 -11z"/>
<path d="M1047 1383 c-3 -5 -8 -28 -12 -53 -14 -85 -16 -95 -25 -127 -5 -22
-5 -35 2 -39 16 -10 38 25 38 58 0 21 5 28 20 28 11 0 20 -5 20 -11 0 -27 33
-79 51 -79 23 0 24 9 5 35 -26 39 -29 63 -6 70 12 4 28 22 37 40 15 31 15 36
-1 59 -14 23 -24 26 -71 26 -29 0 -56 -3 -58 -7z m83 -23 c37 -20 0 -84 -45
-78 -21 3 -22 30 -6 86 2 6 34 1 51 -8z"/>
<path d="M1276 1382 c-8 -14 -29 -144 -30 -186 -1 -43 -9 -40 100 -37 42 2 22
26 -22 26 -21 0 -41 2 -43 5 -2 3 -1 22 3 43 6 31 11 37 31 37 14 0 25 5 25
10 0 9 -14 14 -32 11 -10 -1 -10 51 0 66 4 7 18 11 29 9 28 -6 64 4 57 15 -7
11 -111 12 -118 1z"/>
<path d="M1533 1378 c-24 -31 -112 -206 -106 -212 13 -13 24 -5 40 29 15 31
21 35 55 35 21 0 39 -4 39 -10 1 -5 3 -14 4 -20 1 -5 3 -17 4 -26 0 -9 8 -14
19 -12 10 2 16 12 16 23 -2 27 -16 166 -19 185 -2 19 -39 25 -52 8z m22 -82
c4 -45 4 -46 -25 -46 -17 0 -30 2 -30 5 0 10 44 94 48 91 2 -2 5 -25 7 -50z"/>
<path d="M1945 1379 c-16 -25 -45 -203 -35 -213 6 -6 13 -6 19 -1 7 8 38 148
44 204 2 18 -19 26 -28 10z"/>
<path d="M2048 1385 c-3 -3 -1 -29 4 -58 4 -28 11 -74 14 -102 8 -60 10 -65
34 -65 13 0 35 30 75 104 32 58 58 108 58 113 0 4 -6 9 -14 11 -10 2 -30 -28
-59 -88 -24 -49 -48 -90 -52 -90 -4 0 -8 12 -9 28 0 15 -2 36 -4 47 -2 11 -5
34 -6 50 -4 42 -24 67 -41 50z"/>
<path d="M2306 1378 c-6 -18 -25 -123 -32 -175 -6 -46 -7 -45 51 -45 64 0 77
2 72 15 -2 7 -19 11 -46 10 -42 -2 -42 -2 -40 30 4 40 16 57 40 57 11 0 19 6
19 14 0 9 -7 13 -20 11 -16 -3 -20 1 -20 23 0 38 11 49 45 47 37 -3 57 4 49
16 -8 14 -114 11 -118 -3z"/>
<path d="M2621 1373 c-5 -10 -9 -20 -9 -23 1 -3 -3 -27 -7 -55 -10 -58 -9 -52
-18 -88 -9 -32 -2 -48 17 -41 8 3 16 29 20 62 4 32 10 70 14 86 8 28 10 25 42
-50 41 -97 53 -112 74 -95 9 8 14 16 12 20 -2 3 5 46 15 95 11 53 15 94 10 99
-10 10 -20 -3 -27 -35 -9 -43 -17 -93 -17 -105 -1 -29 -16 -9 -42 55 -16 37
-33 73 -38 80 -13 17 -35 15 -46 -5z"/>
<path d="M2908 1328 c-69 -128 -82 -157 -75 -164 9 -9 37 15 48 42 6 19 16 23
48 22 37 0 40 -2 43 -32 2 -19 9 -31 18 -31 17 0 19 46 5 150 -9 71 -11 75
-35 75 -12 0 -29 -21 -52 -62z m50 16 c-3 -3 -2 -20 2 -39 5 -21 3 -38 -3 -44
-14 -14 -47 -14 -47 -1 0 15 39 90 47 90 3 0 4 -2 1 -6z"/>
<path d="M3610 1370 c-6 -11 -8 -20 -6 -20 3 0 2 -10 -3 -23 -8 -22 -22 -102
-25 -142 0 -12 5 -20 14 -20 10 0 18 17 25 50 l11 50 48 3 47 4 -6 -56 c-7
-55 1 -70 22 -43 13 15 47 206 39 214 -12 12 -34 -19 -40 -55 l-6 -38 -50 0
-51 0 7 31 c3 16 6 32 6 35 1 35 -16 40 -32 10z"/>
</g>
</svg>
