<svg id="Layer_1" data-name="Layer 1" xmlns="http://www.w3.org/2000/svg" viewBox="0 0 64 64"><defs><style>.cls-1,.cls-2{fill:none;stroke:#232829;stroke-width:2px;}.cls-1{stroke-miterlimit:10;}.cls-2{stroke-linejoin:round;}</style></defs><title>Artboard 3</title><polyline class="cls-1" points="22 9 59 9 59 29 22 29"/><circle class="cls-2" cx="12" cy="6" r="5"/><path class="cls-1" d="M7,28v9H1V22a7,7,0,0,1,7-7H35v6H19V37H63V5H20"/><line class="cls-2" x1="22" y1="33" x2="60" y2="33"/><path class="cls-1" d="M56,54l7,4v2c0,1.66-1,3-2,3H3c-1,0-2-1.34-2-3V58l7-4"/><polyline class="cls-1" points="35 54 43 58 43 58 50 54"/><polyline class="cls-1" points="14 54 21 58 21 58 29 54"/><path class="cls-1" d="M16,48.5C16,52,14,55,11,55s-5-3-5-6.5S7,43,11,43,16,45,16,48.5Z"/><path class="cls-1" d="M37,48.5C37,52,35,55,32,55s-5-3-5-6.5S28,43,32,43,37,45,37,48.5Z"/><path class="cls-1" d="M58,48.5C58,52,56,55,53,55s-5-3-5-6.5S49,43,53,43,58,45,58,48.5Z"/><line class="cls-1" x1="21" y1="58" x2="21" y2="61"/><line class="cls-1" x1="43" y1="58" x2="43" y2="61"/><line class="cls-1" x1="12" y1="18" x2="12" y2="20"/><line class="cls-1" x1="12" y1="22" x2="12" y2="24"/></svg>