<svg id="Layer_1" data-name="Layer 1" xmlns="http://www.w3.org/2000/svg" viewBox="0 0 64 64"><defs><style>.cls-1,.cls-2{fill:none;stroke:#232829;stroke-width:2px;}.cls-1{stroke-linejoin:round;}.cls-2{stroke-miterlimit:10;}</style></defs><title>Artboard 2</title><path class="cls-1" d="M21,32v5l-9,4C6,43,1,45.92,1,52V64"/><line class="cls-1" x1="11" y1="42" x2="11" y2="64"/><path class="cls-1" d="M38,19v2l-1,1c0,5-3,12-10,12S17,27,17,22l-1-1V19"/><polyline class="cls-1" points="33 37 27 44 21 37"/><path class="cls-1" d="M41,13c0,2.76-6.27,5-14,5s-14-2.24-14-5"/><path class="cls-1" d="M15,13a12,12,0,0,1,24,0"/><path class="cls-1" d="M29,5a3,3,0,0,1,3-3"/><line class="cls-1" x1="29" y1="5" x2="29" y2="13"/><path class="cls-1" d="M22,2a3,3,0,0,1,3,3"/><line class="cls-1" x1="25" y1="5" x2="25" y2="13"/><line class="cls-1" x1="17" y1="39" x2="17" y2="64"/><polyline class="cls-1" points="37 64 37 39 33 37 33 32"/><polyline class="cls-2" points="60 32 63 32 63 63 41 63 41 32 44 32"/><rect class="cls-2" x="47" y="30" width="10" height="4"/><line class="cls-2" x1="48" y1="38" x2="60" y2="38"/><line class="cls-2" x1="46" y1="38" x2="44" y2="38"/><line class="cls-2" x1="48" y1="42" x2="60" y2="42"/><line class="cls-2" x1="46" y1="42" x2="44" y2="42"/><line class="cls-2" x1="48" y1="46" x2="60" y2="46"/><line class="cls-2" x1="46" y1="46" x2="44" y2="46"/><line class="cls-2" x1="48" y1="50" x2="60" y2="50"/><line class="cls-2" x1="46" y1="50" x2="44" y2="50"/><line class="cls-2" x1="60" y1="57" x2="55" y2="57"/><line class="cls-1" x1="26" y1="48" x2="28" y2="48"/><line class="cls-1" x1="26" y1="52" x2="28" y2="52"/><line class="cls-1" x1="26" y1="56" x2="28" y2="56"/></svg>